<?xml version="1.0" encoding="utf-8"?>
<!-- Generator: Adobe Illustrator 24.0.1, SVG Export Plug-In . SVG Version: 6.00 Build 0)  -->
<svg version="1.1" xmlns="http://www.w3.org/2000/svg" xmlns:xlink="http://www.w3.org/1999/xlink" x="0px" y="0px"
	 viewBox="0 0 50.8 54.7" style="enable-background:new 0 0 50.8 54.7;" xml:space="preserve">
<style type="text/css">
	.st0{display:none;}
	
		.st1{display:inline;fill:#FFFFFF;stroke:#000000;stroke-width:0.75;stroke-linecap:square;stroke-linejoin:round;stroke-miterlimit:10;}
	
		.st2{display:inline;fill:#FFFFFF;stroke:#000000;stroke-width:0.5;stroke-linecap:square;stroke-linejoin:round;stroke-miterlimit:10;}
	
		.st3{display:inline;fill:#141414;stroke:#FFFFFF;stroke-width:0.5;stroke-linecap:square;stroke-linejoin:round;stroke-miterlimit:10;}
	.st4{fill:#141414;stroke:#FFFFFF;stroke-width:0.5;stroke-linecap:square;stroke-linejoin:round;stroke-miterlimit:10;}
	.st5{display:inline;stroke:#FFFFFF;stroke-width:0.75;stroke-linecap:square;stroke-linejoin:round;stroke-miterlimit:10;}
</style>
<g id="Lager_1" class="st0">
	
		<image style="display:inline;overflow:visible;" width="103" height="116" xlink:href="../../../Documents/PUF2019/Moto/img/pointer1.png"  transform="matrix(0.48 0 0 0.48 456.0312 369.3351)">
	</image>
</g>
<g id="Lager_2" class="st0">
	<path class="st1" d="M1.3,20.4C1,19.6,1.6,18.4,4,18.6c2,0.2,3.6,1.6,5.1,1.7s3,0.3,3.5-0.4c0.5-0.8-0.8-4.2-3.4-5.7
		c-1.3-0.8-3-2.7-4.9-3.9C2.5,9.1,0.5,6.7,0.7,6c0.1-0.5,0.5-1.3,1.6-1.2C4,5,7.3,7.3,8.2,8.2c1.3,1.2,3.6,2.5,3.6,2.5
		s-1.5-1.6-2.2-2.7s-1.2-2.3-1.9-3S5.8,3,5.9,2.2s1.4-1.8,2.2-1.3s2.3,2.2,3.3,3.5c1,1.3,2.7,3.2,2.7,3.2s0.6-0.3,1.1-0.1
		C15.8,7.7,15.9,8,16.4,8c0.5,0,1.5-0.1,1.7,0.3c0.3,0.3,0.7,0.5,1,0.6c0.3,0.1,1.2,0.3,1.7,0.9c0.5,0.5,0.8,0.5,1.9,1.8
		c1,1.3,1.6,3.2,2.1,4.5c0.4,1.3,0.5,2.4,1,3.3c0.5,0.9,2.6,3.6,2.8,4.2s0.2,1.9-2.2,4.1s-3.6,3-4.4,3.1c-0.8,0.1-2.2,0.3-2.5,0
		s-1.1-3.5-2.4-3.8c-1.5-0.3-4.7-1.1-6.5-1.8c-1.8-0.7-3.7-1.4-5.2-2.1C4,22.4,1.9,21.5,1.3,20.4z"/>
</g>
<g id="Lager_2_kopia_4" class="st0">
	<path class="st2" d="M1.1,13.4c-0.2-0.5,0.2-1.3,1.7-1.1c1.3,0.1,2.3,1.1,3.3,1.1s2,0.2,2.3-0.3c0.3-0.5-0.5-2.7-2.2-3.7
		C5.4,8.9,4.3,7.7,3.1,6.9C1.8,6.1,0.6,4.6,0.7,4.1c0.1-0.3,0.3-0.8,1-0.7C2.8,3.5,4.9,5,5.6,5.6c0.8,0.8,2.3,1.6,2.3,1.6
		S7,6.2,6.5,5.5S5.7,4,5.3,3.6S4,2.2,4.1,1.7S5,0.5,5.5,0.8S7,2.2,7.6,3.1s1.8,2.1,1.8,2.1s0.4-0.2,0.7-0.1c0.3,0.2,0.4,0.4,0.7,0.4
		c0.3,0,0.9-0.1,1.1,0.2C12.1,5.8,12.4,6,12.6,6c0.2,0.1,0.8,0.2,1.1,0.6s0.5,0.4,1.2,1.2c0.7,0.8,1.1,2.1,1.3,2.9
		c0.3,0.8,0.3,1.6,0.7,2.1c0.3,0.6,1.7,2.3,1.8,2.7c0.1,0.4,0.1,1.2-1.4,2.6c-1.5,1.4-2.3,2-2.8,2c-0.5,0.1-1.4,0.2-1.6,0
		c-0.2-0.2-0.7-2.3-1.6-2.5c-1-0.2-3-0.7-4.2-1.2c-1.2-0.4-2.4-0.9-3.4-1.3C2.8,14.7,1.5,14.1,1.1,13.4z"/>
</g>
<g id="Lager_2_kopia_5" class="st0">
	<path class="st3" d="M1.1,13.4c-0.2-0.5,0.2-1.3,1.7-1.1c1.3,0.1,2.3,1.1,3.3,1.1s2,0.2,2.3-0.3c0.3-0.5-0.5-2.7-2.2-3.7
		C5.4,8.9,4.3,7.7,3.1,6.9C1.8,6.1,0.6,4.6,0.7,4.1c0.1-0.3,0.3-0.8,1-0.7C2.8,3.5,4.9,5,5.6,5.6c0.8,0.8,2.3,1.6,2.3,1.6
		S7,6.2,6.5,5.5S5.7,4,5.3,3.6S4,2.2,4.1,1.7S5,0.5,5.5,0.8S7,2.2,7.6,3.1s1.8,2.1,1.8,2.1s0.4-0.2,0.7-0.1c0.3,0.2,0.4,0.4,0.7,0.4
		c0.3,0,0.9-0.1,1.1,0.2C12.1,5.8,12.4,6,12.6,6c0.2,0.1,0.8,0.2,1.1,0.6s0.5,0.4,1.2,1.2c0.7,0.8,1.1,2.1,1.3,2.9
		c0.3,0.8,0.3,1.6,0.7,2.1c0.3,0.6,1.7,2.3,1.8,2.7c0.1,0.4,0.1,1.2-1.4,2.6c-1.5,1.4-2.3,2-2.8,2c-0.5,0.1-1.4,0.2-1.6,0
		c-0.2-0.2-0.7-2.3-1.6-2.5c-1-0.2-3-0.7-4.2-1.2c-1.2-0.4-2.4-0.9-3.4-1.3C2.8,14.7,1.5,14.1,1.1,13.4z"/>
</g>
<g id="Lager_7">
	<path class="st4" d="M3.8,13.7c-0.4-0.4-0.2-1.2,1.3-1.6c1.3-0.3,2.6,0.2,3.5,0s1.9-0.4,2.1-1c0.2-0.6-1.3-2.4-3.3-2.8
		C6.4,8.1,5,7.3,3.5,7C2.1,6.6,0.4,5.5,0.4,5.1c0-0.4,0-0.9,0.7-1c1.1-0.2,3.6,0.5,4.3,0.9c1,0.5,2.7,0.8,2.7,0.8S7,5,6.3,4.5
		S5.1,3.4,4.5,3.1S2.9,2.2,2.8,1.7C2.7,1.1,3.3,0.3,3.9,0.4s1.9,0.8,2.7,1.4s2.3,1.4,2.3,1.4s0.3-0.3,0.7-0.3
		C10,3,10.1,3.2,10.4,3.1s0.9-0.4,1.1-0.2C11.8,3,12.1,3,12.3,3s0.8,0,1.2,0.2c0.4,0.2,0.6,0.2,1.5,0.7c0.9,0.6,1.7,1.6,2.2,2.3
		s0.8,1.4,1.3,1.8c0.5,0.4,2.3,1.7,2.6,2s0.5,1.1-0.5,2.9s-1.6,2.6-2,2.8c-0.5,0.2-1.3,0.6-1.5,0.5c-0.3-0.1-1.4-1.9-2.3-1.8
		c-1,0.1-3.1,0.3-4.3,0.2s-2.6-0.1-3.6-0.2C5.8,14.5,4.4,14.3,3.8,13.7z"/>
</g>
<g id="Lager_7_kopia" class="st0">
	<path class="st2" d="M3.8,13.7c-0.4-0.4-0.2-1.2,1.3-1.6c1.3-0.3,2.6,0.2,3.5,0s1.9-0.4,2.1-1c0.2-0.6-1.3-2.4-3.3-2.8
		C6.4,8.1,5,7.3,3.5,7C2.1,6.6,0.4,5.5,0.4,5.1c0-0.4,0-0.9,0.7-1c1.1-0.2,3.6,0.5,4.3,0.9c1,0.5,2.7,0.8,2.7,0.8S7,5,6.3,4.5
		S5.1,3.4,4.5,3.1S2.9,2.2,2.8,1.7C2.7,1.1,3.3,0.3,3.9,0.4s1.9,0.8,2.7,1.4s2.3,1.4,2.3,1.4s0.3-0.3,0.7-0.3
		C10,3,10.1,3.2,10.4,3.1s0.9-0.4,1.1-0.2C11.8,3,12.1,3,12.3,3s0.8,0,1.2,0.2c0.4,0.2,0.6,0.2,1.5,0.7c0.9,0.6,1.7,1.6,2.2,2.3
		s0.8,1.4,1.3,1.8c0.5,0.4,2.3,1.7,2.6,2s0.5,1.1-0.5,2.9s-1.6,2.6-2,2.8c-0.5,0.2-1.3,0.6-1.5,0.5c-0.3-0.1-1.4-1.9-2.3-1.8
		c-1,0.1-3.1,0.3-4.3,0.2s-2.6-0.1-3.6-0.2C5.8,14.5,4.4,14.3,3.8,13.7z"/>
</g>
<g id="Lager_2_kopia_2" class="st0">
	<path class="st5" d="M1.3,20.4C1,19.6,1.6,18.4,4,18.6c2,0.2,3.6,1.6,5.1,1.7s3,0.3,3.5-0.4c0.5-0.8-0.8-4.2-3.4-5.7
		c-1.3-0.8-3-2.7-4.9-3.9C2.5,9.1,0.5,6.7,0.7,6c0.1-0.5,0.5-1.3,1.6-1.2C4,5,7.3,7.3,8.2,8.2c1.3,1.2,3.6,2.5,3.6,2.5
		s-1.5-1.6-2.2-2.7s-1.2-2.3-1.9-3S5.8,3,5.9,2.2s1.4-1.8,2.2-1.3s2.3,2.2,3.3,3.5c1,1.3,2.7,3.2,2.7,3.2s0.6-0.3,1.1-0.1
		C15.8,7.7,15.9,8,16.4,8c0.5,0,1.5-0.1,1.7,0.3c0.3,0.3,0.7,0.5,1,0.6c0.3,0.1,1.2,0.3,1.7,0.9c0.5,0.5,0.8,0.5,1.9,1.8
		c1,1.3,1.6,3.2,2.1,4.5c0.4,1.3,0.5,2.4,1,3.3c0.5,0.9,2.6,3.6,2.8,4.2s0.2,1.9-2.2,4.1s-3.6,3-4.4,3.1c-0.8,0.1-2.2,0.3-2.5,0
		s-1.1-3.5-2.4-3.8c-1.5-0.3-4.7-1.1-6.5-1.8c-1.8-0.7-3.7-1.4-5.2-2.1C4,22.4,1.9,21.5,1.3,20.4z"/>
</g>
<g id="Lager_2_kopia" class="st0">
	<path class="st1" d="M7.6,21.2c-0.7-0.5-0.6-1.9,1.6-2.8c1.9-0.7,4-0.2,5.3-0.8s2.9-1.1,3-2c0.1-0.9-2.6-3.4-5.6-3.6
		c-1.5-0.1-3.9-1-6.2-1.3c-2.2-0.2-5.1-1.5-5.2-2.2C0.4,8.1,0.4,7.3,1.5,6.9c1.6-0.6,5.6,0,6.8,0.4c1.7,0.5,4.4,0.6,4.4,0.6
		s-2-0.7-3.2-1.4S7.4,5,6.4,4.7c-0.9-0.3-2.7-1-3-1.8s0.4-2.2,1.4-2.2S8,1.6,9.4,2.3s3.9,1.6,3.9,1.6s0.4-0.6,1-0.6s0.8,0.3,1.3,0
		s1.3-0.7,1.7-0.6C17.5,3,18,3,18.4,2.9c0.3-0.1,1.2-0.2,1.9,0c0.7,0.2,1,0.1,2.5,0.8s2.9,2.1,3.9,3.1s1.6,1.9,2.4,2.5
		s4,2.1,4.4,2.5s1,1.6-0.1,4.6c-1.1,3-1.9,4.3-2.5,4.8c-0.7,0.4-1.8,1.2-2.2,1.1c-0.4-0.1-2.6-2.6-3.9-2.3c-1.5,0.4-4.7,1.1-6.6,1.3
		s-3.9,0.5-5.6,0.5S8.6,22,7.6,21.2z"/>
</g>
<g id="Lager_2_kopia_3" class="st0">
	<path class="st5" d="M7.6,21.2c-0.7-0.5-0.6-1.9,1.6-2.8c1.9-0.7,4-0.2,5.3-0.8s2.9-1.1,3-2c0.1-0.9-2.6-3.4-5.6-3.6
		c-1.5-0.1-3.9-1-6.2-1.3c-2.2-0.2-5.1-1.5-5.2-2.2C0.4,8.1,0.4,7.3,1.5,6.9c1.6-0.6,5.6,0,6.8,0.4c1.7,0.5,4.4,0.6,4.4,0.6
		s-2-0.7-3.2-1.4S7.4,5,6.4,4.7c-0.9-0.3-2.7-1-3-1.8s0.4-2.2,1.4-2.2S8,1.6,9.4,2.3s3.9,1.6,3.9,1.6s0.4-0.6,1-0.6s0.8,0.3,1.3,0
		s1.3-0.7,1.7-0.6C17.5,3,18,3,18.4,2.9c0.3-0.1,1.2-0.2,1.9,0c0.7,0.2,1,0.1,2.5,0.8s2.9,2.1,3.9,3.1s1.6,1.9,2.4,2.5
		s4,2.1,4.4,2.5s1,1.6-0.1,4.6c-1.1,3-1.9,4.3-2.5,4.8c-0.7,0.4-1.8,1.2-2.2,1.1c-0.4-0.1-2.6-2.6-3.9-2.3c-1.5,0.4-4.7,1.1-6.6,1.3
		s-3.9,0.5-5.6,0.5S8.6,22,7.6,21.2z"/>
</g>
</svg>
